<?xml version="1.0" encoding="utf-8"?>
<!-- Generator: Adobe Illustrator 28.1.0, SVG Export Plug-In . SVG Version: 6.00 Build 0)  -->
<svg version="1.1" id="Layer_1" xmlns="http://www.w3.org/2000/svg" xmlns:xlink="http://www.w3.org/1999/xlink" x="0px" y="0px"
	 viewBox="0 0 24 24" style="enable-background:new 0 0 24 24;" xml:space="preserve">
<style type="text/css">
	.st0{fill:none;stroke:#1E1E1E;stroke-width:2;stroke-linecap:round;stroke-linejoin:round;stroke-miterlimit:10;}
	.st1{fill:none;stroke:#1E1E1E;stroke-width:1.7;stroke-linecap:round;stroke-linejoin:round;stroke-miterlimit:10;}
	.st2{fill:none;stroke:#1E1E1E;stroke-width:1.8;stroke-linecap:round;stroke-linejoin:round;stroke-miterlimit:10;}
	.st3{fill:#1E1E1E;}
	.st4{fill:#FFFFFF;stroke:#1E1E1E;stroke-width:2;stroke-linecap:round;stroke-linejoin:round;stroke-miterlimit:10;}
	.st5{fill:none;stroke:#1E1E1E;stroke-width:1.6;stroke-linecap:round;stroke-linejoin:round;stroke-miterlimit:10;}
	.st6{fill:none;stroke:#010101;stroke-width:2;stroke-linecap:round;stroke-linejoin:round;stroke-miterlimit:10;}
	.st7{fill:#010101;}
	.st8{fill:none;stroke:#010101;stroke-width:1.8;stroke-linecap:round;stroke-linejoin:round;stroke-miterlimit:10;}
</style>
<path class="st0" d="M6,8.4c-4,0-5,3.1-5,5"/>
<path class="st0" d="M8,2.9C7.5,2.3,6.7,2,5.9,2C4.3,2,3,3.2,3,4.8v0.9c0,1.5,1.3,2.8,2.9,2.8"/>
<path class="st0" d="M18,20c0-2.3-1.2-6-6-6s-6,3.7-6,6"/>
<path class="st0" d="M12,14c1.6,0,3-1.3,3-3v-1c0-1.6-1.4-3-3-3c-1.6,0-3,1.3-3,3v1C9,12.7,10.4,14,12,14"/>
<path class="st0" d="M23,13.4c0-1.9-1-5-5-5"/>
<path class="st0" d="M15.9,2.9C16.4,2.3,17.2,2,18,2c1.5,0,2.9,1.2,2.9,2.8v0.9c0,1.5-1.3,2.8-2.9,2.8"/>
</svg>
