<?xml version="1.0" encoding="utf-8"?>
<!-- Generator: Adobe Illustrator 28.1.0, SVG Export Plug-In . SVG Version: 6.00 Build 0)  -->
<svg version="1.1" id="Layer_1" xmlns="http://www.w3.org/2000/svg" xmlns:xlink="http://www.w3.org/1999/xlink" x="0px" y="0px"
	 viewBox="0 0 24 24" style="enable-background:new 0 0 24 24;" xml:space="preserve">
<style type="text/css">
	.st0{fill:none;stroke:#1E1E1E;stroke-width:2;stroke-linecap:round;stroke-linejoin:round;stroke-miterlimit:10;}
	.st1{fill:none;stroke:#1E1E1E;stroke-width:1.7;stroke-linecap:round;stroke-linejoin:round;stroke-miterlimit:10;}
	.st2{fill:none;stroke:#1E1E1E;stroke-width:1.8;stroke-linecap:round;stroke-linejoin:round;stroke-miterlimit:10;}
	.st3{fill:#1E1E1E;}
	.st4{fill:#FFFFFF;stroke:#1E1E1E;stroke-width:2;stroke-linecap:round;stroke-linejoin:round;stroke-miterlimit:10;}
	.st5{fill:none;stroke:#1E1E1E;stroke-width:1.6;stroke-linecap:round;stroke-linejoin:round;stroke-miterlimit:10;}
	.st6{fill:none;stroke:#010101;stroke-width:2;stroke-linecap:round;stroke-linejoin:round;stroke-miterlimit:10;}
	.st7{fill:#010101;}
	.st8{fill:none;stroke:#010101;stroke-width:1.8;stroke-linecap:round;stroke-linejoin:round;stroke-miterlimit:10;}
</style>
<line class="st0" x1="23" y1="18" x2="13" y2="18"/>
<line class="st0" x1="18" y1="23" x2="18" y2="13"/>
<path class="st0" d="M9.6,10C4.4,10,3,13.6,3,16v1"/>
<path class="st0" d="M9.6,10c2.3,0,3.9,0.7,4.9,1.7"/>
<path class="st0" d="M9,1C6.8,1,5,2.8,5,4.9v1.1C5,8.2,6.8,10,9,10s4-1.8,4-3.9V4.9C13,2.8,11.2,1,9,1z"/>
<path class="st0" d="M21.5,11.1c-0.6-1.4-2-2.7-4.5-2.7"/>
<path class="st0" d="M17,8.4c1.6,0,3-1.2,3-2.8V4.8C20,3.2,18.6,2,17,2"/>
</svg>
